<svg width="801" height="327" viewBox="0 0 801 327" fill="none" xmlns="http://www.w3.org/2000/svg">
<rect x="0.888672" y="0.573975" width="800" height="326" rx="4" fill="#ECF1F5"/>
<path d="M41.3393 55.1479H43.2153V45.1379H41.5493L39.2253 46.7899V48.4279L41.3393 46.9859V55.1479ZM46.4535 55.2459C47.0835 55.2459 47.5735 54.7699 47.5735 54.1539C47.5735 53.5379 47.0835 53.0479 46.4535 53.0479C45.8375 53.0479 45.3475 53.5379 45.3475 54.1539C45.3475 54.7699 45.8375 55.2459 46.4535 55.2459ZM52.9683 55.1479H54.8303V51.3399H56.2303C58.3723 51.3399 59.8983 50.4019 59.8983 48.2879V48.2319C59.8983 46.1319 58.4283 45.1379 56.1883 45.1379H52.9683V55.1479ZM54.8303 49.9959V46.5799H56.1883C57.3783 46.5799 58.0783 47.0419 58.0783 48.2319V48.2879C58.0783 49.3939 57.4203 49.9959 56.1883 49.9959H54.8303ZM64.3745 55.2879C66.2505 55.2879 67.4965 54.4479 67.7345 52.9079H66.0965C65.9705 53.6219 65.4385 54.0279 64.4165 54.0279C63.1565 54.0279 62.4565 53.2439 62.4005 51.8579H67.7625V51.3679C67.7625 48.7499 66.1245 47.6719 64.3045 47.6719C62.2185 47.6719 60.6645 49.1839 60.6645 51.4519V51.5639C60.6645 53.8739 62.2185 55.2879 64.3745 55.2879ZM62.4285 50.7239C62.5965 49.5899 63.2825 48.9039 64.3045 48.9039C65.3545 48.9039 65.9985 49.4639 66.0825 50.7239H62.4285ZM69.2756 55.1479H70.9696V50.8359C70.9696 49.6739 71.7396 49.0859 72.6916 49.0859C73.6996 49.0859 74.1476 49.5899 74.1476 50.6959V55.1479H75.8416V50.5419C75.8416 48.5259 74.8056 47.6719 73.3356 47.6719C72.1316 47.6719 71.3196 48.2739 70.9696 48.9879V47.8259H69.2756V55.1479ZM80.5372 55.2879C81.6152 55.2879 82.5532 54.6439 82.9452 53.9159V55.1479H84.6392V44.4379H82.9452V48.9459C82.5392 48.2179 81.7972 47.6719 80.6072 47.6719C78.7032 47.6719 77.3172 49.1559 77.3172 51.4939V51.6059C77.3172 53.9859 78.7032 55.2879 80.5372 55.2879ZM80.9572 53.9439C79.8652 53.9439 79.0532 53.1739 79.0532 51.5639V51.4519C79.0532 49.8699 79.7812 49.0019 81.0272 49.0019C82.2592 49.0019 83.0012 49.7999 83.0012 51.4099V51.5219C83.0012 53.1599 82.1332 53.9439 80.9572 53.9439ZM86.6945 55.1479H88.3885V47.8259H86.6945V55.1479ZM87.5205 46.6219C88.0805 46.6219 88.5285 46.2019 88.5285 45.6559C88.5285 45.0959 88.0805 44.6759 87.5205 44.6759C86.9605 44.6759 86.5125 45.0959 86.5125 45.6559C86.5125 46.2019 86.9605 46.6219 87.5205 46.6219ZM90.4533 55.1479H92.1473V50.8359C92.1473 49.6739 92.9173 49.0859 93.8693 49.0859C94.8773 49.0859 95.3253 49.5899 95.3253 50.6959V55.1479H97.0193V50.5419C97.0193 48.5259 95.9833 47.6719 94.5133 47.6719C93.3093 47.6719 92.4973 48.2739 92.1473 48.9879V47.8259H90.4533V55.1479ZM102.093 57.8359C104.361 57.8359 105.803 56.7579 105.817 54.6019V47.8259H104.123V48.9459C103.703 48.2179 102.975 47.6719 101.771 47.6719C99.8809 47.6719 98.4809 49.2119 98.4809 51.2699V51.3679C98.4809 53.4819 99.8949 54.8539 101.729 54.8539C102.807 54.8539 103.717 54.1959 104.123 53.4959V54.5739C104.123 55.8899 103.395 56.5479 102.079 56.5479C100.973 56.5479 100.413 56.1279 100.273 55.3999H98.5649C98.7609 56.7999 99.7969 57.8359 102.093 57.8359ZM102.149 53.5519C101.057 53.5519 100.217 52.7119 100.217 51.3539V51.2419C100.217 49.9119 100.945 49.0019 102.205 49.0019C103.423 49.0019 104.179 49.8279 104.179 51.2139V51.3119C104.179 52.7119 103.325 53.5519 102.149 53.5519ZM113.672 55.2879C115.548 55.2879 116.598 54.4339 116.598 52.9499C116.598 51.3959 115.576 50.9759 113.854 50.7099C112.692 50.5139 112.342 50.3039 112.342 49.7719C112.342 49.2539 112.776 48.9039 113.504 48.9039C114.288 48.9039 114.666 49.2119 114.806 49.8839H116.374C116.192 48.2319 115.002 47.6719 113.504 47.6719C112.132 47.6719 110.76 48.3999 110.76 49.8699C110.76 51.2419 111.474 51.7879 113.406 52.0959C114.484 52.2779 114.974 52.5019 114.974 53.1039C114.974 53.7199 114.568 54.0419 113.658 54.0419C112.664 54.0419 112.286 53.6079 112.202 52.8659H110.606C110.676 54.4199 111.782 55.2879 113.672 55.2879ZM120.576 55.2739C121.094 55.2739 121.458 55.1899 121.724 55.0919V53.7479C121.486 53.8459 121.234 53.8879 120.898 53.8879C120.366 53.8879 120.058 53.5939 120.058 52.9499V49.0999H121.668V47.8259H120.058V46.2159H118.364V47.8259H117.384V49.0999H118.364V53.1039C118.364 54.4899 119.12 55.2739 120.576 55.2739ZM126.472 55.2879C128.348 55.2879 129.594 54.4479 129.832 52.9079H128.194C128.068 53.6219 127.536 54.0279 126.514 54.0279C125.254 54.0279 124.554 53.2439 124.498 51.8579H129.86V51.3679C129.86 48.7499 128.222 47.6719 126.402 47.6719C124.316 47.6719 122.762 49.1839 122.762 51.4519V51.5639C122.762 53.8739 124.316 55.2879 126.472 55.2879ZM124.526 50.7239C124.694 49.5899 125.38 48.9039 126.402 48.9039C127.452 48.9039 128.096 49.4639 128.18 50.7239H124.526ZM131.373 57.6539H133.067V53.9999C133.459 54.7139 134.299 55.2879 135.461 55.2879C137.351 55.2879 138.709 53.8599 138.709 51.5079V51.3959C138.709 49.0299 137.295 47.6719 135.461 47.6719C134.383 47.6719 133.473 48.3019 133.067 49.0019V47.8259H131.373V57.6539ZM135.041 53.9439C133.809 53.9439 133.011 53.1739 133.011 51.5359V51.4239C133.011 49.7999 133.851 49.0019 135.027 49.0019C136.133 49.0019 136.973 49.7999 136.973 51.4239V51.5359C136.973 53.1039 136.287 53.9439 135.041 53.9439Z" fill="#2A2C2E"/>
<path d="M40.932 84.126C42.458 84.126 43.704 83.286 43.704 81.284V73.99H42.486V81.228C42.486 82.572 41.856 83.132 40.862 83.132C40.26 83.132 39.896 83.006 39.532 82.852V83.86C39.798 84 40.176 84.126 40.932 84.126ZM48.5329 84.126C49.7089 84.126 50.5209 83.524 50.8569 82.838V84H52.0189V76.678H50.8569V81.116C50.8569 82.432 49.8769 83.118 48.8409 83.118C47.6929 83.118 47.1469 82.544 47.1469 81.256V76.678H45.9849V81.312C45.9849 83.328 47.0769 84.126 48.5329 84.126ZM56.6354 84.126C58.4134 84.126 59.3234 83.23 59.3234 81.9C59.3234 80.346 58.2594 80.01 56.7474 79.73C55.4034 79.492 55.0394 79.226 55.0394 78.568C55.0394 77.938 55.5854 77.518 56.4254 77.518C57.3494 77.518 57.7974 77.868 57.9654 78.666H59.0854C58.8894 77.084 57.7554 76.552 56.4394 76.552C55.2914 76.552 53.9614 77.252 53.9614 78.61C53.9614 79.884 54.6054 80.416 56.5094 80.766C57.6434 80.976 58.2174 81.228 58.2174 81.998C58.2174 82.782 57.7274 83.16 56.6214 83.16C55.4454 83.16 54.9834 82.614 54.8994 81.746H53.7654C53.8354 83.244 54.8854 84.126 56.6354 84.126ZM63.32 84.098C63.796 84.098 64.076 84.028 64.314 83.944V82.964C64.062 83.062 63.782 83.118 63.418 83.118C62.83 83.118 62.508 82.768 62.508 82.054V77.658H64.216V76.678H62.508V75.012H61.346V76.678H60.296V77.658H61.346V82.166C61.346 83.314 61.99 84.098 63.32 84.098ZM72.0436 84.126C73.8216 84.126 74.7316 83.23 74.7316 81.9C74.7316 80.346 73.6676 80.01 72.1556 79.73C70.8116 79.492 70.4476 79.226 70.4476 78.568C70.4476 77.938 70.9936 77.518 71.8336 77.518C72.7576 77.518 73.2056 77.868 73.3736 78.666H74.4936C74.2976 77.084 73.1636 76.552 71.8476 76.552C70.6996 76.552 69.3696 77.252 69.3696 78.61C69.3696 79.884 70.0136 80.416 71.9176 80.766C73.0516 80.976 73.6256 81.228 73.6256 81.998C73.6256 82.782 73.1356 83.16 72.0296 83.16C70.8536 83.16 70.3916 82.614 70.3076 81.746H69.1736C69.2436 83.244 70.2936 84.126 72.0436 84.126ZM76.5302 84H77.6922V76.678H76.5302V84ZM77.0902 75.152C77.5102 75.152 77.8602 74.802 77.8602 74.382C77.8602 73.962 77.5102 73.612 77.0902 73.612C76.6702 73.612 76.3202 73.962 76.3202 74.382C76.3202 74.802 76.6702 75.152 77.0902 75.152ZM82.9965 86.674C85.0405 86.674 86.4825 85.638 86.4965 83.51V76.678H85.3345V77.854C84.9145 77.14 84.1585 76.552 82.9405 76.552C80.9245 76.552 79.5245 78.204 79.5245 80.192V80.29C79.5245 82.306 80.9385 83.762 82.8565 83.762C83.9205 83.762 84.9145 83.09 85.3345 82.376V83.44C85.3345 85.008 84.4245 85.694 82.9825 85.694C81.7365 85.694 81.0365 85.26 80.8685 84.42H79.6785C79.8745 85.652 80.8265 86.674 82.9965 86.674ZM82.9825 82.796C81.7505 82.796 80.7285 81.844 80.7285 80.248V80.136C80.7285 78.596 81.5965 77.518 83.0525 77.518C84.4805 77.518 85.3765 78.47 85.3765 80.108V80.206C85.3765 81.844 84.3405 82.796 82.9825 82.796ZM88.8479 84H90.0099V79.562C90.0099 78.246 90.9759 77.56 92.0539 77.56C93.2299 77.56 93.7759 78.134 93.7759 79.422V84H94.9379V79.506C94.9379 77.378 93.8739 76.552 92.3619 76.552C91.1579 76.552 90.3459 77.154 90.0099 77.84V76.678H88.8479V84ZM100.211 84.126C101.863 84.126 103.081 83.356 103.333 81.886H102.171C102.017 82.74 101.359 83.16 100.225 83.16C98.7271 83.16 97.9291 82.236 97.8731 80.57H103.389V80.192C103.389 77.574 101.793 76.552 100.099 76.552C98.0831 76.552 96.6691 78.092 96.6691 80.304V80.416C96.6691 82.67 98.1391 84.126 100.211 84.126ZM97.9151 79.632C98.1111 78.33 98.9091 77.518 100.099 77.518C101.303 77.518 102.087 78.12 102.199 79.632H97.9151ZM107.93 84.126C108.994 84.126 110.016 83.454 110.436 82.74V84H111.598V73.178H110.436V77.854C110.016 77.14 109.26 76.552 108.042 76.552C106.026 76.552 104.626 78.134 104.626 80.374V80.486C104.626 82.768 106.012 84.126 107.93 84.126ZM108.056 83.16C106.824 83.16 105.83 82.278 105.83 80.43V80.318C105.83 78.54 106.698 77.518 108.154 77.518C109.582 77.518 110.478 78.4 110.478 80.276V80.388C110.478 82.264 109.414 83.16 108.056 83.16ZM120.133 84.126C121.309 84.126 122.121 83.524 122.457 82.838V84H123.619V76.678H122.457V81.116C122.457 82.432 121.477 83.118 120.441 83.118C119.293 83.118 118.747 82.544 118.747 81.256V76.678H117.585V81.312C117.585 83.328 118.677 84.126 120.133 84.126ZM125.967 86.548H127.129V82.796C127.549 83.524 128.403 84.126 129.607 84.126C131.623 84.126 132.939 82.586 132.939 80.346V80.234C132.939 77.952 131.525 76.552 129.607 76.552C128.543 76.552 127.549 77.196 127.129 77.91V76.678H125.967V86.548ZM129.495 83.16C128.067 83.16 127.087 82.278 127.087 80.402V80.29C127.087 78.414 128.123 77.518 129.481 77.518C130.713 77.518 131.735 78.442 131.735 80.29V80.402C131.735 82.18 130.951 83.16 129.495 83.16ZM134.555 85.722L136.277 82.796L135.143 82.264L133.799 85.33L134.555 85.722ZM143.597 84H144.871L146.579 78.512L148.105 84H149.393L151.675 76.678H150.485L148.763 82.572L147.097 76.678H146.089L144.311 82.572L142.603 76.678H141.343L143.597 84ZM154.94 84.126C156.018 84.126 156.676 83.762 157.222 83.076V84H158.384V79.17C158.384 77.126 157.11 76.552 155.71 76.552C154.296 76.552 152.966 77.168 152.812 78.834H153.974C154.086 77.938 154.646 77.518 155.654 77.518C156.774 77.518 157.222 78.008 157.222 79.17V79.702H156.172C154.296 79.702 152.504 80.276 152.504 81.97C152.504 83.468 153.582 84.126 154.94 84.126ZM155.052 83.202C154.03 83.202 153.666 82.726 153.666 81.97C153.666 80.892 154.744 80.528 156.214 80.528H157.222V81.438C157.222 82.572 156.284 83.202 155.052 83.202ZM160.694 84H161.856V76.678H160.694V84ZM161.254 75.152C161.674 75.152 162.024 74.802 162.024 74.382C162.024 73.962 161.674 73.612 161.254 73.612C160.834 73.612 160.484 73.962 160.484 74.382C160.484 74.802 160.834 75.152 161.254 75.152ZM166.461 84.098C166.937 84.098 167.217 84.028 167.455 83.944V82.964C167.203 83.062 166.923 83.118 166.559 83.118C165.971 83.118 165.649 82.768 165.649 82.054V77.658H167.357V76.678H165.649V75.012H164.487V76.678H163.437V77.658H164.487V82.166C164.487 83.314 165.131 84.098 166.461 84.098ZM169.239 84H170.401V76.678H169.239V84ZM169.799 75.152C170.219 75.152 170.569 74.802 170.569 74.382C170.569 73.962 170.219 73.612 169.799 73.612C169.379 73.612 169.029 73.962 169.029 74.382C169.029 74.802 169.379 75.152 169.799 75.152ZM172.78 84H173.942V79.562C173.942 78.246 174.908 77.56 175.986 77.56C177.162 77.56 177.708 78.134 177.708 79.422V84H178.87V79.506C178.87 77.378 177.806 76.552 176.294 76.552C175.09 76.552 174.278 77.154 173.942 77.84V76.678H172.78V84ZM184.073 86.674C186.117 86.674 187.559 85.638 187.573 83.51V76.678H186.411V77.854C185.991 77.14 185.235 76.552 184.017 76.552C182.001 76.552 180.601 78.204 180.601 80.192V80.29C180.601 82.306 182.015 83.762 183.933 83.762C184.997 83.762 185.991 83.09 186.411 82.376V83.44C186.411 85.008 185.501 85.694 184.059 85.694C182.813 85.694 182.113 85.26 181.945 84.42H180.755C180.951 85.652 181.903 86.674 184.073 86.674ZM184.059 82.796C182.827 82.796 181.805 81.844 181.805 80.248V80.136C181.805 78.596 182.673 77.518 184.129 77.518C185.557 77.518 186.453 78.47 186.453 80.108V80.206C186.453 81.844 185.417 82.796 184.059 82.796ZM193.881 84H195.043V77.658H196.835V76.678H195.043V75.362C195.043 74.62 195.351 74.102 196.107 74.102C196.429 74.102 196.723 74.172 196.933 74.256V73.276C196.639 73.178 196.443 73.136 196.065 73.136C194.609 73.136 193.881 74.004 193.881 75.488V76.678H192.831V77.658H193.881V84ZM201.166 83.16C199.682 83.16 198.772 82.068 198.772 80.402V80.29C198.772 78.61 199.696 77.518 201.166 77.518C202.622 77.518 203.56 78.61 203.56 80.304V80.402C203.56 82.054 202.636 83.16 201.166 83.16ZM201.152 84.126C203.238 84.126 204.764 82.6 204.764 80.388V80.276C204.764 78.078 203.238 76.552 201.166 76.552C199.094 76.552 197.568 78.092 197.568 80.29V80.402C197.568 82.544 199.066 84.126 201.152 84.126ZM206.563 84H207.725V79.982C207.725 78.176 208.663 77.714 210.133 77.644V76.552C208.817 76.594 208.187 77.168 207.725 77.994V76.678H206.563V84ZM42.444 105.126C44.222 105.126 45.132 104.23 45.132 102.9C45.132 101.346 44.068 101.01 42.556 100.73C41.212 100.492 40.848 100.226 40.848 99.568C40.848 98.938 41.394 98.518 42.234 98.518C43.158 98.518 43.606 98.868 43.774 99.666H44.894C44.698 98.084 43.564 97.552 42.248 97.552C41.1 97.552 39.77 98.252 39.77 99.61C39.77 100.884 40.414 101.416 42.318 101.766C43.452 101.976 44.026 102.228 44.026 102.998C44.026 103.782 43.536 104.16 42.43 104.16C41.254 104.16 40.792 103.614 40.708 102.746H39.574C39.644 104.244 40.694 105.126 42.444 105.126ZM49.9546 104.16C48.4706 104.16 47.5606 103.068 47.5606 101.402V101.29C47.5606 99.61 48.4846 98.518 49.9546 98.518C51.4106 98.518 52.3486 99.61 52.3486 101.304V101.402C52.3486 103.054 51.4246 104.16 49.9546 104.16ZM49.9406 105.126C52.0266 105.126 53.5526 103.6 53.5526 101.388V101.276C53.5526 99.078 52.0266 97.552 49.9546 97.552C47.8826 97.552 46.3566 99.092 46.3566 101.29V101.402C46.3566 103.544 47.8546 105.126 49.9406 105.126ZM55.3798 105H56.5558V94.178H55.3798V105ZM60.7678 105.126C61.8458 105.126 62.5038 104.762 63.0498 104.076V105H64.2118V100.17C64.2118 98.126 62.9378 97.552 61.5378 97.552C60.1238 97.552 58.7938 98.168 58.6398 99.834H59.8018C59.9138 98.938 60.4738 98.518 61.4818 98.518C62.6018 98.518 63.0498 99.008 63.0498 100.17V100.702H61.9998C60.1238 100.702 58.3318 101.276 58.3318 102.97C58.3318 104.468 59.4098 105.126 60.7678 105.126ZM60.8798 104.202C59.8578 104.202 59.4938 103.726 59.4938 102.97C59.4938 101.892 60.5718 101.528 62.0418 101.528H63.0498V102.438C63.0498 103.572 62.1118 104.202 60.8798 104.202ZM66.4944 105H67.6564V100.982C67.6564 99.176 68.5944 98.714 70.0644 98.644V97.552C68.7484 97.594 68.1184 98.168 67.6564 98.994V97.678H66.4944V105ZM75.7151 105H76.8771V98.658H78.6691V97.678H76.8771V96.362C76.8771 95.62 77.1851 95.102 77.9411 95.102C78.2631 95.102 78.5571 95.172 78.7671 95.256V94.276C78.4731 94.178 78.2771 94.136 77.8991 94.136C76.4431 94.136 75.7151 95.004 75.7151 96.488V97.678H74.6651V98.658H75.7151V105ZM82.0002 105.126C83.0782 105.126 83.7362 104.762 84.2822 104.076V105H85.4442V100.17C85.4442 98.126 84.1702 97.552 82.7702 97.552C81.3562 97.552 80.0262 98.168 79.8722 99.834H81.0342C81.1462 98.938 81.7062 98.518 82.7142 98.518C83.8342 98.518 84.2822 99.008 84.2822 100.17V100.702H83.2322C81.3562 100.702 79.5642 101.276 79.5642 102.97C79.5642 104.468 80.6422 105.126 82.0002 105.126ZM82.1122 104.202C81.0902 104.202 80.7262 103.726 80.7262 102.97C80.7262 101.892 81.8042 101.528 83.2742 101.528H84.2822V102.438C84.2822 103.572 83.3442 104.202 82.1122 104.202ZM87.7268 105H88.8888V100.982C88.8888 99.176 89.8268 98.714 91.2968 98.644V97.552C89.9808 97.594 89.3508 98.168 88.8888 98.994V97.678H87.7268V105ZM92.9905 105H94.1525V100.52C94.1525 99.204 95.1325 98.56 96.0845 98.56C97.0925 98.56 97.6385 99.092 97.6385 100.38V105H98.8005V100.52C98.8005 99.204 99.7805 98.56 100.732 98.56C101.74 98.56 102.286 99.092 102.286 100.38V105H103.448V100.464C103.448 98.336 102.3 97.552 100.984 97.552C100.074 97.552 98.9825 97.972 98.4785 98.924C98.1005 97.944 97.2745 97.552 96.3365 97.552C95.2865 97.552 94.4885 98.112 94.1525 98.798V97.678H92.9905V105ZM109.438 105H110.6V100.52C110.6 99.204 111.58 98.56 112.532 98.56C113.54 98.56 114.086 99.092 114.086 100.38V105H115.248V100.52C115.248 99.204 116.228 98.56 117.18 98.56C118.188 98.56 118.734 99.092 118.734 100.38V105H119.896V100.464C119.896 98.336 118.748 97.552 117.432 97.552C116.522 97.552 115.43 97.972 114.926 98.924C114.548 97.944 113.722 97.552 112.784 97.552C111.734 97.552 110.936 98.112 110.6 98.798V97.678H109.438V105ZM124.014 105.126C125.092 105.126 125.75 104.762 126.296 104.076V105H127.458V100.17C127.458 98.126 126.184 97.552 124.784 97.552C123.37 97.552 122.04 98.168 121.886 99.834H123.048C123.16 98.938 123.72 98.518 124.728 98.518C125.848 98.518 126.296 99.008 126.296 100.17V100.702H125.246C123.37 100.702 121.578 101.276 121.578 102.97C121.578 104.468 122.656 105.126 124.014 105.126ZM124.126 104.202C123.104 104.202 122.74 103.726 122.74 102.97C122.74 101.892 123.818 101.528 125.288 101.528H126.296V102.438C126.296 103.572 125.358 104.202 124.126 104.202ZM131.966 105.098C132.442 105.098 132.722 105.028 132.96 104.944V103.964C132.708 104.062 132.428 104.118 132.064 104.118C131.476 104.118 131.154 103.768 131.154 103.054V98.658H132.862V97.678H131.154V96.012H129.992V97.678H128.942V98.658H129.992V103.166C129.992 104.314 130.636 105.098 131.966 105.098ZM137.755 105.126C139.519 105.126 140.793 103.95 140.947 102.368H139.869C139.743 103.558 138.805 104.16 137.769 104.16C136.355 104.16 135.375 103.208 135.375 101.416V101.304C135.375 99.582 136.397 98.518 137.727 98.518C138.735 98.518 139.575 98.952 139.757 100.114H140.905C140.681 98.252 139.253 97.552 137.727 97.552C135.767 97.552 134.171 99.064 134.171 101.304V101.416C134.171 103.684 135.711 105.126 137.755 105.126ZM142.701 105H143.863V100.562C143.863 99.246 144.829 98.56 145.907 98.56C147.083 98.56 147.629 99.134 147.629 100.422V105H148.791V100.506C148.791 98.378 147.727 97.552 146.215 97.552C145.011 97.552 144.199 98.154 143.863 98.84V94.178H142.701V105Z" fill="#2A2C2E"/>
<path d="M119.092 198.108C121.3 198.108 122.344 196.824 122.344 194.736V189.42H121.3V194.592C121.3 196.692 120.484 197.244 119.116 197.244C117.688 197.244 117.052 196.548 117.052 194.748V189.42H116.008V194.868C116.008 196.956 117.124 198.108 119.092 198.108ZM124.305 200.184H125.301V196.968C125.661 197.592 126.393 198.108 127.425 198.108C129.153 198.108 130.281 196.788 130.281 194.868V194.772C130.281 192.816 129.069 191.616 127.425 191.616C126.513 191.616 125.661 192.168 125.301 192.78V191.724H124.305V200.184ZM127.329 197.28C126.105 197.28 125.265 196.524 125.265 194.916V194.82C125.265 193.212 126.153 192.444 127.317 192.444C128.373 192.444 129.249 193.236 129.249 194.82V194.916C129.249 196.44 128.577 197.28 127.329 197.28ZM134.192 198.108C135.104 198.108 135.98 197.532 136.34 196.92V198H137.336V188.724H136.34V192.732C135.98 192.12 135.332 191.616 134.288 191.616C132.56 191.616 131.36 192.972 131.36 194.892V194.988C131.36 196.944 132.548 198.108 134.192 198.108ZM134.3 197.28C133.244 197.28 132.392 196.524 132.392 194.94V194.844C132.392 193.32 133.136 192.444 134.384 192.444C135.608 192.444 136.376 193.2 136.376 194.808V194.904C136.376 196.512 135.464 197.28 134.3 197.28ZM140.924 198.108C141.848 198.108 142.412 197.796 142.88 197.208V198H143.876V193.86C143.876 192.108 142.784 191.616 141.584 191.616C140.372 191.616 139.232 192.144 139.1 193.572H140.096C140.192 192.804 140.672 192.444 141.536 192.444C142.496 192.444 142.88 192.864 142.88 193.86V194.316H141.98C140.372 194.316 138.836 194.808 138.836 196.26C138.836 197.544 139.76 198.108 140.924 198.108ZM141.02 197.316C140.144 197.316 139.832 196.908 139.832 196.26C139.832 195.336 140.756 195.024 142.016 195.024H142.88V195.804C142.88 196.776 142.076 197.316 141.02 197.316ZM147.74 198.084C148.148 198.084 148.388 198.024 148.592 197.952V197.112C148.376 197.196 148.136 197.244 147.824 197.244C147.32 197.244 147.044 196.944 147.044 196.332V192.564H148.508V191.724H147.044V190.296H146.048V191.724H145.148V192.564H146.048V196.428C146.048 197.412 146.6 198.084 147.74 198.084ZM152.666 198.108C154.082 198.108 155.126 197.448 155.342 196.188H154.346C154.214 196.92 153.65 197.28 152.678 197.28C151.394 197.28 150.71 196.488 150.662 195.06H155.39V194.736C155.39 192.492 154.022 191.616 152.57 191.616C150.842 191.616 149.63 192.936 149.63 194.832V194.928C149.63 196.86 150.89 198.108 152.666 198.108ZM150.698 194.256C150.866 193.14 151.55 192.444 152.57 192.444C153.602 192.444 154.274 192.96 154.37 194.256H150.698ZM158.921 198.108C160.445 198.108 161.225 197.34 161.225 196.2C161.225 194.868 160.313 194.58 159.017 194.34C157.865 194.136 157.553 193.908 157.553 193.344C157.553 192.804 158.021 192.444 158.741 192.444C159.533 192.444 159.917 192.744 160.061 193.428H161.021C160.853 192.072 159.881 191.616 158.753 191.616C157.769 191.616 156.629 192.216 156.629 193.38C156.629 194.472 157.181 194.928 158.813 195.228C159.785 195.408 160.277 195.624 160.277 196.284C160.277 196.956 159.857 197.28 158.909 197.28C157.901 197.28 157.505 196.812 157.433 196.068H156.461C156.521 197.352 157.421 198.108 158.921 198.108Z" fill="#2A2C2E"/>
<path d="M289.08 84H290.186L292.524 76.09L294.792 84H295.912L298.516 73.99H297.382L295.324 82.096L292.972 73.99H292.104L289.752 82.068L287.722 73.99H286.476L289.08 84ZM301.574 84.126C302.652 84.126 303.31 83.762 303.856 83.076V84H305.018V79.17C305.018 77.126 303.744 76.552 302.344 76.552C300.93 76.552 299.6 77.168 299.446 78.834H300.608C300.72 77.938 301.28 77.518 302.288 77.518C303.408 77.518 303.856 78.008 303.856 79.17V79.702H302.806C300.93 79.702 299.138 80.276 299.138 81.97C299.138 83.468 300.216 84.126 301.574 84.126ZM301.686 83.202C300.664 83.202 300.3 82.726 300.3 81.97C300.3 80.892 301.378 80.528 302.848 80.528H303.856V81.438C303.856 82.572 302.918 83.202 301.686 83.202ZM307.329 84H308.491V76.678H307.329V84ZM307.889 75.152C308.309 75.152 308.659 74.802 308.659 74.382C308.659 73.962 308.309 73.612 307.889 73.612C307.469 73.612 307.119 73.962 307.119 74.382C307.119 74.802 307.469 75.152 307.889 75.152ZM313.095 84.098C313.571 84.098 313.851 84.028 314.089 83.944V82.964C313.837 83.062 313.557 83.118 313.193 83.118C312.605 83.118 312.283 82.768 312.283 82.054V77.658H313.991V76.678H312.283V75.012H311.121V76.678H310.071V77.658H311.121V82.166C311.121 83.314 311.765 84.098 313.095 84.098ZM319.803 84H320.965V77.658H322.757V76.678H320.965V75.362C320.965 74.62 321.273 74.102 322.029 74.102C322.351 74.102 322.645 74.172 322.855 74.256V73.276C322.561 73.178 322.365 73.136 321.987 73.136C320.531 73.136 319.803 74.004 319.803 75.488V76.678H318.753V77.658H319.803V84ZM327.087 83.16C325.603 83.16 324.693 82.068 324.693 80.402V80.29C324.693 78.61 325.617 77.518 327.087 77.518C328.543 77.518 329.481 78.61 329.481 80.304V80.402C329.481 82.054 328.557 83.16 327.087 83.16ZM327.073 84.126C329.159 84.126 330.685 82.6 330.685 80.388V80.276C330.685 78.078 329.159 76.552 327.087 76.552C325.015 76.552 323.489 78.092 323.489 80.29V80.402C323.489 82.544 324.987 84.126 327.073 84.126ZM332.485 84H333.647V79.982C333.647 78.176 334.585 77.714 336.055 77.644V76.552C334.739 76.594 334.109 77.168 333.647 77.994V76.678H332.485V84ZM343.679 84.098C344.155 84.098 344.435 84.028 344.673 83.944V82.964C344.421 83.062 344.141 83.118 343.777 83.118C343.189 83.118 342.867 82.768 342.867 82.054V77.658H344.575V76.678H342.867V75.012H341.705V76.678H340.655V77.658H341.705V82.166C341.705 83.314 342.349 84.098 343.679 84.098ZM346.43 84H347.592V79.562C347.592 78.246 348.558 77.56 349.636 77.56C350.812 77.56 351.358 78.134 351.358 79.422V84H352.52V79.506C352.52 77.378 351.456 76.552 349.944 76.552C348.74 76.552 347.928 77.154 347.592 77.84V73.178H346.43V84ZM357.793 84.126C359.445 84.126 360.663 83.356 360.915 81.886H359.753C359.599 82.74 358.941 83.16 357.807 83.16C356.309 83.16 355.511 82.236 355.455 80.57H360.971V80.192C360.971 77.574 359.375 76.552 357.681 76.552C355.665 76.552 354.251 78.092 354.251 80.304V80.416C354.251 82.67 355.721 84.126 357.793 84.126ZM355.497 79.632C355.693 78.33 356.491 77.518 357.681 77.518C358.885 77.518 359.669 78.12 359.781 79.632H355.497ZM368.727 84.126C370.505 84.126 371.415 83.23 371.415 81.9C371.415 80.346 370.351 80.01 368.839 79.73C367.495 79.492 367.131 79.226 367.131 78.568C367.131 77.938 367.677 77.518 368.517 77.518C369.441 77.518 369.889 77.868 370.057 78.666H371.177C370.981 77.084 369.847 76.552 368.531 76.552C367.383 76.552 366.053 77.252 366.053 78.61C366.053 79.884 366.697 80.416 368.601 80.766C369.735 80.976 370.309 81.228 370.309 81.998C370.309 82.782 369.819 83.16 368.713 83.16C367.537 83.16 367.075 82.614 366.991 81.746H365.857C365.927 83.244 366.977 84.126 368.727 84.126ZM376.238 83.16C374.754 83.16 373.844 82.068 373.844 80.402V80.29C373.844 78.61 374.768 77.518 376.238 77.518C377.694 77.518 378.632 78.61 378.632 80.304V80.402C378.632 82.054 377.708 83.16 376.238 83.16ZM376.224 84.126C378.31 84.126 379.836 82.6 379.836 80.388V80.276C379.836 78.078 378.31 76.552 376.238 76.552C374.166 76.552 372.64 78.092 372.64 80.29V80.402C372.64 82.544 374.138 84.126 376.224 84.126ZM381.663 84H382.839V73.178H381.663V84ZM387.051 84.126C388.129 84.126 388.787 83.762 389.333 83.076V84H390.495V79.17C390.495 77.126 389.221 76.552 387.821 76.552C386.407 76.552 385.077 77.168 384.923 78.834H386.085C386.197 77.938 386.757 77.518 387.765 77.518C388.885 77.518 389.333 78.008 389.333 79.17V79.702H388.283C386.407 79.702 384.615 80.276 384.615 81.97C384.615 83.468 385.693 84.126 387.051 84.126ZM387.163 83.202C386.141 83.202 385.777 82.726 385.777 81.97C385.777 80.892 386.855 80.528 388.325 80.528H389.333V81.438C389.333 82.572 388.395 83.202 387.163 83.202ZM392.778 84H393.94V79.982C393.94 78.176 394.878 77.714 396.348 77.644V76.552C395.032 76.594 394.402 77.168 393.94 77.994V76.678H392.778V84ZM401.998 84H403.16V77.658H404.952V76.678H403.16V75.362C403.16 74.62 403.468 74.102 404.224 74.102C404.546 74.102 404.84 74.172 405.05 74.256V73.276C404.756 73.178 404.56 73.136 404.182 73.136C402.726 73.136 401.998 74.004 401.998 75.488V76.678H400.948V77.658H401.998V84ZM408.283 84.126C409.361 84.126 410.019 83.762 410.565 83.076V84H411.727V79.17C411.727 77.126 410.453 76.552 409.053 76.552C407.639 76.552 406.309 77.168 406.155 78.834H407.317C407.429 77.938 407.989 77.518 408.997 77.518C410.117 77.518 410.565 78.008 410.565 79.17V79.702H409.515C407.639 79.702 405.847 80.276 405.847 81.97C405.847 83.468 406.925 84.126 408.283 84.126ZM408.395 83.202C407.373 83.202 407.009 82.726 407.009 81.97C407.009 80.892 408.087 80.528 409.557 80.528H410.565V81.438C410.565 82.572 409.627 83.202 408.395 83.202ZM414.01 84H415.172V79.982C415.172 78.176 416.11 77.714 417.58 77.644V76.552C416.264 76.594 415.634 77.168 415.172 77.994V76.678H414.01V84ZM419.274 84H420.436V79.52C420.436 78.204 421.416 77.56 422.368 77.56C423.376 77.56 423.922 78.092 423.922 79.38V84H425.084V79.52C425.084 78.204 426.064 77.56 427.016 77.56C428.024 77.56 428.57 78.092 428.57 79.38V84H429.732V79.464C429.732 77.336 428.584 76.552 427.268 76.552C426.358 76.552 425.266 76.972 424.762 77.924C424.384 76.944 423.558 76.552 422.62 76.552C421.57 76.552 420.772 77.112 420.436 77.798V76.678H419.274V84ZM437.947 84.098C438.423 84.098 438.703 84.028 438.941 83.944V82.964C438.689 83.062 438.409 83.118 438.045 83.118C437.457 83.118 437.135 82.768 437.135 82.054V77.658H438.843V76.678H437.135V75.012H435.973V76.678H434.923V77.658H435.973V82.166C435.973 83.314 436.617 84.098 437.947 84.098ZM443.749 83.16C442.265 83.16 441.355 82.068 441.355 80.402V80.29C441.355 78.61 442.279 77.518 443.749 77.518C445.205 77.518 446.143 78.61 446.143 80.304V80.402C446.143 82.054 445.219 83.16 443.749 83.16ZM443.735 84.126C445.821 84.126 447.347 82.6 447.347 80.388V80.276C447.347 78.078 445.821 76.552 443.749 76.552C441.677 76.552 440.151 78.092 440.151 80.29V80.402C440.151 82.544 441.649 84.126 443.735 84.126ZM287.204 105H288.38V94.178H287.204V105ZM292.592 105.126C293.67 105.126 294.328 104.762 294.874 104.076V105H296.036V100.17C296.036 98.126 294.762 97.552 293.362 97.552C291.948 97.552 290.618 98.168 290.464 99.834H291.626C291.738 98.938 292.298 98.518 293.306 98.518C294.426 98.518 294.874 99.008 294.874 100.17V100.702H293.824C291.948 100.702 290.156 101.276 290.156 102.97C290.156 104.468 291.234 105.126 292.592 105.126ZM292.704 104.202C291.682 104.202 291.318 103.726 291.318 102.97C291.318 101.892 292.396 101.528 293.866 101.528H294.874V102.438C294.874 103.572 293.936 104.202 292.704 104.202ZM300.797 105.126C301.973 105.126 302.785 104.524 303.121 103.838V105H304.283V97.678H303.121V102.116C303.121 103.432 302.141 104.118 301.105 104.118C299.957 104.118 299.411 103.544 299.411 102.256V97.678H298.249V102.312C298.249 104.328 299.341 105.126 300.797 105.126ZM306.631 105H307.793V100.562C307.793 99.246 308.759 98.56 309.837 98.56C311.013 98.56 311.559 99.134 311.559 100.422V105H312.721V100.506C312.721 98.378 311.657 97.552 310.145 97.552C308.941 97.552 308.129 98.154 307.793 98.84V97.678H306.631V105ZM318.036 105.126C319.8 105.126 321.074 103.95 321.228 102.368H320.15C320.024 103.558 319.086 104.16 318.05 104.16C316.636 104.16 315.656 103.208 315.656 101.416V101.304C315.656 99.582 316.678 98.518 318.008 98.518C319.016 98.518 319.856 98.952 320.038 100.114H321.186C320.962 98.252 319.534 97.552 318.008 97.552C316.048 97.552 314.452 99.064 314.452 101.304V101.416C314.452 103.684 315.992 105.126 318.036 105.126ZM322.983 105H324.145V100.562C324.145 99.246 325.111 98.56 326.189 98.56C327.365 98.56 327.911 99.134 327.911 100.422V105H329.073V100.506C329.073 98.378 328.009 97.552 326.497 97.552C325.293 97.552 324.481 98.154 324.145 98.84V94.178H322.983V105Z" fill="#2A2C2E"/>
<path d="M533.26 84H539.35V83.006H534.478V79.38H538.202V78.386H534.478V74.984H539.098V73.99H533.26V84ZM541.106 84H542.268V79.562C542.268 78.246 543.234 77.56 544.312 77.56C545.488 77.56 546.034 78.134 546.034 79.422V84H547.196V79.506C547.196 77.378 546.132 76.552 544.62 76.552C543.416 76.552 542.604 77.154 542.268 77.84V76.678H541.106V84ZM549.473 84H550.635V79.982C550.635 78.176 551.573 77.714 553.043 77.644V76.552C551.727 76.594 551.097 77.168 550.635 77.994V76.678H549.473V84ZM557.583 83.16C556.099 83.16 555.189 82.068 555.189 80.402V80.29C555.189 78.61 556.113 77.518 557.583 77.518C559.039 77.518 559.977 78.61 559.977 80.304V80.402C559.977 82.054 559.053 83.16 557.583 83.16ZM557.569 84.126C559.655 84.126 561.181 82.6 561.181 80.388V80.276C561.181 78.078 559.655 76.552 557.583 76.552C555.511 76.552 553.985 78.092 553.985 80.29V80.402C553.985 82.544 555.483 84.126 557.569 84.126ZM563.009 84H564.185V73.178H563.009V84ZM566.591 84H567.767V73.178H566.591V84ZM573.141 84.126C574.793 84.126 576.011 83.356 576.263 81.886H575.101C574.947 82.74 574.289 83.16 573.155 83.16C571.657 83.16 570.859 82.236 570.803 80.57H576.319V80.192C576.319 77.574 574.723 76.552 573.029 76.552C571.013 76.552 569.599 78.092 569.599 80.304V80.416C569.599 82.67 571.069 84.126 573.141 84.126ZM570.845 79.632C571.041 78.33 571.839 77.518 573.029 77.518C574.233 77.518 575.017 78.12 575.129 79.632H570.845ZM580.86 84.126C581.924 84.126 582.946 83.454 583.366 82.74V84H584.528V73.178H583.366V77.854C582.946 77.14 582.19 76.552 580.972 76.552C578.956 76.552 577.556 78.134 577.556 80.374V80.486C577.556 82.768 578.942 84.126 580.86 84.126ZM580.986 83.16C579.754 83.16 578.76 82.278 578.76 80.43V80.318C578.76 78.54 579.628 77.518 581.084 77.518C582.512 77.518 583.408 78.4 583.408 80.276V80.388C583.408 82.264 582.344 83.16 580.986 83.16ZM593.636 83.16C592.152 83.16 591.242 82.068 591.242 80.402V80.29C591.242 78.61 592.166 77.518 593.636 77.518C595.092 77.518 596.03 78.61 596.03 80.304V80.402C596.03 82.054 595.106 83.16 593.636 83.16ZM593.622 84.126C595.708 84.126 597.234 82.6 597.234 80.388V80.276C597.234 78.078 595.708 76.552 593.636 76.552C591.564 76.552 590.038 78.092 590.038 80.29V80.402C590.038 82.544 591.536 84.126 593.622 84.126ZM599.033 84H600.195V79.562C600.195 78.246 601.161 77.56 602.239 77.56C603.415 77.56 603.961 78.134 603.961 79.422V84H605.123V79.506C605.123 77.378 604.059 76.552 602.547 76.552C601.343 76.552 600.531 77.154 600.195 77.84V76.678H599.033V84ZM613.374 84.126C615.152 84.126 616.062 83.23 616.062 81.9C616.062 80.346 614.998 80.01 613.486 79.73C612.142 79.492 611.778 79.226 611.778 78.568C611.778 77.938 612.324 77.518 613.164 77.518C614.088 77.518 614.536 77.868 614.704 78.666H615.824C615.628 77.084 614.494 76.552 613.178 76.552C612.03 76.552 610.7 77.252 610.7 78.61C610.7 79.884 611.344 80.416 613.248 80.766C614.382 80.976 614.956 81.228 614.956 81.998C614.956 82.782 614.466 83.16 613.36 83.16C612.184 83.16 611.722 82.614 611.638 81.746H610.504C610.574 83.244 611.624 84.126 613.374 84.126ZM620.884 83.16C619.4 83.16 618.49 82.068 618.49 80.402V80.29C618.49 78.61 619.414 77.518 620.884 77.518C622.34 77.518 623.278 78.61 623.278 80.304V80.402C623.278 82.054 622.354 83.16 620.884 83.16ZM620.87 84.126C622.956 84.126 624.482 82.6 624.482 80.388V80.276C624.482 78.078 622.956 76.552 620.884 76.552C618.812 76.552 617.286 78.092 617.286 80.29V80.402C617.286 82.544 618.784 84.126 620.87 84.126ZM626.309 84H627.485V73.178H626.309V84ZM631.698 84.126C632.776 84.126 633.434 83.762 633.98 83.076V84H635.142V79.17C635.142 77.126 633.868 76.552 632.468 76.552C631.054 76.552 629.724 77.168 629.57 78.834H630.732C630.844 77.938 631.404 77.518 632.412 77.518C633.532 77.518 633.98 78.008 633.98 79.17V79.702H632.93C631.054 79.702 629.262 80.276 629.262 81.97C629.262 83.468 630.34 84.126 631.698 84.126ZM631.81 83.202C630.788 83.202 630.424 82.726 630.424 81.97C630.424 80.892 631.502 80.528 632.972 80.528H633.98V81.438C633.98 82.572 633.042 83.202 631.81 83.202ZM637.424 84H638.586V79.982C638.586 78.176 639.524 77.714 640.994 77.644V76.552C639.678 76.594 639.048 77.168 638.586 77.994V76.678H637.424V84ZM646.645 84H647.807V77.658H649.599V76.678H647.807V75.362C647.807 74.62 648.115 74.102 648.871 74.102C649.193 74.102 649.487 74.172 649.697 74.256V73.276C649.403 73.178 649.207 73.136 648.829 73.136C647.373 73.136 646.645 74.004 646.645 75.488V76.678H645.595V77.658H646.645V84ZM652.93 84.126C654.008 84.126 654.666 83.762 655.212 83.076V84H656.374V79.17C656.374 77.126 655.1 76.552 653.7 76.552C652.286 76.552 650.956 77.168 650.802 78.834H651.964C652.076 77.938 652.636 77.518 653.644 77.518C654.764 77.518 655.212 78.008 655.212 79.17V79.702H654.162C652.286 79.702 650.494 80.276 650.494 81.97C650.494 83.468 651.572 84.126 652.93 84.126ZM653.042 83.202C652.02 83.202 651.656 82.726 651.656 81.97C651.656 80.892 652.734 80.528 654.204 80.528H655.212V81.438C655.212 82.572 654.274 83.202 653.042 83.202ZM658.656 84H659.818V79.982C659.818 78.176 660.756 77.714 662.226 77.644V76.552C660.91 76.594 660.28 77.168 659.818 77.994V76.678H658.656V84ZM663.92 84H665.082V79.52C665.082 78.204 666.062 77.56 667.014 77.56C668.022 77.56 668.568 78.092 668.568 79.38V84H669.73V79.52C669.73 78.204 670.71 77.56 671.662 77.56C672.67 77.56 673.216 78.092 673.216 79.38V84H674.378V79.464C674.378 77.336 673.23 76.552 671.914 76.552C671.004 76.552 669.912 76.972 669.408 77.924C669.03 76.944 668.204 76.552 667.266 76.552C666.216 76.552 665.418 77.112 665.082 77.798V76.678H663.92V84ZM676.746 85.722L678.468 82.796L677.334 82.264L675.99 85.33L676.746 85.722ZM686.587 84.126C688.365 84.126 689.275 83.23 689.275 81.9C689.275 80.346 688.211 80.01 686.699 79.73C685.355 79.492 684.991 79.226 684.991 78.568C684.991 77.938 685.537 77.518 686.377 77.518C687.301 77.518 687.749 77.868 687.917 78.666H689.037C688.841 77.084 687.707 76.552 686.391 76.552C685.243 76.552 683.913 77.252 683.913 78.61C683.913 79.884 684.557 80.416 686.461 80.766C687.595 80.976 688.169 81.228 688.169 81.998C688.169 82.782 687.679 83.16 686.573 83.16C685.397 83.16 684.935 82.614 684.851 81.746H683.717C683.787 83.244 684.837 84.126 686.587 84.126ZM694.041 84.126C695.693 84.126 696.911 83.356 697.163 81.886H696.001C695.847 82.74 695.189 83.16 694.055 83.16C692.557 83.16 691.759 82.236 691.703 80.57H697.219V80.192C697.219 77.574 695.623 76.552 693.929 76.552C691.913 76.552 690.499 78.092 690.499 80.304V80.416C690.499 82.67 691.969 84.126 694.041 84.126ZM691.745 79.632C691.941 78.33 692.739 77.518 693.929 77.518C695.133 77.518 695.917 78.12 696.029 79.632H691.745ZM701.998 84.126C703.65 84.126 704.868 83.356 705.12 81.886H703.958C703.804 82.74 703.146 83.16 702.012 83.16C700.514 83.16 699.716 82.236 699.66 80.57H705.176V80.192C705.176 77.574 703.58 76.552 701.886 76.552C699.87 76.552 698.456 78.092 698.456 80.304V80.416C698.456 82.67 699.926 84.126 701.998 84.126ZM699.702 79.632C699.898 78.33 700.696 77.518 701.886 77.518C703.09 77.518 703.874 78.12 703.986 79.632H699.702ZM533.204 105H534.366V97.678H533.204V105ZM533.764 96.152C534.184 96.152 534.534 95.802 534.534 95.382C534.534 94.962 534.184 94.612 533.764 94.612C533.344 94.612 532.994 94.962 532.994 95.382C532.994 95.802 533.344 96.152 533.764 96.152ZM536.744 105H537.906V100.52C537.906 99.204 538.886 98.56 539.838 98.56C540.846 98.56 541.392 99.092 541.392 100.38V105H542.554V100.52C542.554 99.204 543.534 98.56 544.486 98.56C545.494 98.56 546.04 99.092 546.04 100.38V105H547.202V100.464C547.202 98.336 546.054 97.552 544.738 97.552C543.828 97.552 542.736 97.972 542.232 98.924C541.854 97.944 541.028 97.552 540.09 97.552C539.04 97.552 538.242 98.112 537.906 98.798V97.678H536.744V105ZM549.487 107.548H550.649V103.796C551.069 104.524 551.923 105.126 553.127 105.126C555.143 105.126 556.459 103.586 556.459 101.346V101.234C556.459 98.952 555.045 97.552 553.127 97.552C552.063 97.552 551.069 98.196 550.649 98.91V97.678H549.487V107.548ZM553.015 104.16C551.587 104.16 550.607 103.278 550.607 101.402V101.29C550.607 99.414 551.643 98.518 553.001 98.518C554.233 98.518 555.255 99.442 555.255 101.29V101.402C555.255 103.18 554.471 104.16 553.015 104.16ZM560.098 105.126C561.176 105.126 561.834 104.762 562.38 104.076V105H563.542V100.17C563.542 98.126 562.268 97.552 560.868 97.552C559.454 97.552 558.124 98.168 557.97 99.834H559.132C559.244 98.938 559.804 98.518 560.812 98.518C561.932 98.518 562.38 99.008 562.38 100.17V100.702H561.33C559.454 100.702 557.662 101.276 557.662 102.97C557.662 104.468 558.74 105.126 560.098 105.126ZM560.21 104.202C559.188 104.202 558.824 103.726 558.824 102.97C558.824 101.892 559.902 101.528 561.372 101.528H562.38V102.438C562.38 103.572 561.442 104.202 560.21 104.202ZM568.862 105.126C570.626 105.126 571.9 103.95 572.054 102.368H570.976C570.85 103.558 569.912 104.16 568.876 104.16C567.462 104.16 566.482 103.208 566.482 101.416V101.304C566.482 99.582 567.504 98.518 568.834 98.518C569.842 98.518 570.682 98.952 570.864 100.114H572.012C571.788 98.252 570.36 97.552 568.834 97.552C566.874 97.552 565.278 99.064 565.278 101.304V101.416C565.278 103.684 566.818 105.126 568.862 105.126ZM576.035 105.098C576.511 105.098 576.791 105.028 577.029 104.944V103.964C576.777 104.062 576.497 104.118 576.133 104.118C575.545 104.118 575.223 103.768 575.223 103.054V98.658H576.931V97.678H575.223V96.012H574.061V97.678H573.011V98.658H574.061V103.166C574.061 104.314 574.705 105.098 576.035 105.098ZM590.33 99.834H589.252L588.034 102.144L585.934 99.582C587.208 99.036 588.076 98.21 588.076 96.992C588.076 95.788 587.124 94.934 585.892 94.934C584.632 94.934 583.442 95.718 583.442 97.23C583.442 97.902 583.736 98.588 584.324 99.344C583.036 99.974 582.028 100.772 582.028 102.354C582.028 104.006 583.358 105.098 585.192 105.098C586.452 105.098 587.334 104.524 587.964 103.796L588.958 105H590.372L588.692 102.956L590.33 99.834ZM585.234 104.146C583.974 104.146 583.204 103.446 583.204 102.242C583.204 101.066 583.89 100.492 584.87 100.016L587.362 103.054C586.76 103.782 586.032 104.146 585.234 104.146ZM584.562 97.244C584.562 96.264 585.15 95.844 585.85 95.844C586.522 95.844 586.984 96.32 586.984 96.964C586.984 97.93 586.55 98.434 585.43 98.938C584.884 98.252 584.562 97.748 584.562 97.244ZM598.061 105.126C599.839 105.126 600.749 104.23 600.749 102.9C600.749 101.346 599.685 101.01 598.173 100.73C596.829 100.492 596.465 100.226 596.465 99.568C596.465 98.938 597.011 98.518 597.851 98.518C598.775 98.518 599.223 98.868 599.391 99.666H600.511C600.315 98.084 599.181 97.552 597.865 97.552C596.717 97.552 595.387 98.252 595.387 99.61C595.387 100.884 596.031 101.416 597.935 101.766C599.069 101.976 599.643 102.228 599.643 102.998C599.643 103.782 599.153 104.16 598.047 104.16C596.871 104.16 596.409 103.614 596.325 102.746H595.191C595.261 104.244 596.311 105.126 598.061 105.126ZM604.354 105.126C605.432 105.126 606.09 104.762 606.636 104.076V105H607.798V100.17C607.798 98.126 606.524 97.552 605.124 97.552C603.71 97.552 602.38 98.168 602.226 99.834H603.388C603.5 98.938 604.06 98.518 605.068 98.518C606.188 98.518 606.636 99.008 606.636 100.17V100.702H605.586C603.71 100.702 601.918 101.276 601.918 102.97C601.918 104.468 602.996 105.126 604.354 105.126ZM604.466 104.202C603.444 104.202 603.08 103.726 603.08 102.97C603.08 101.892 604.158 101.528 605.628 101.528H606.636V102.438C606.636 103.572 605.698 104.202 604.466 104.202ZM611.709 105H613.193L615.825 97.678H614.621L612.479 103.824L610.309 97.678H609.049L611.709 105ZM617.382 105H618.544V97.678H617.382V105ZM617.942 96.152C618.362 96.152 618.712 95.802 618.712 95.382C618.712 94.962 618.362 94.612 617.942 94.612C617.522 94.612 617.172 94.962 617.172 95.382C617.172 95.802 617.522 96.152 617.942 96.152ZM620.922 105H622.084V100.562C622.084 99.246 623.05 98.56 624.128 98.56C625.304 98.56 625.85 99.134 625.85 100.422V105H627.012V100.506C627.012 98.378 625.948 97.552 624.436 97.552C623.232 97.552 622.42 98.154 622.084 98.84V97.678H620.922V105ZM632.215 107.674C634.259 107.674 635.701 106.638 635.715 104.51V97.678H634.553V98.854C634.133 98.14 633.377 97.552 632.159 97.552C630.143 97.552 628.743 99.204 628.743 101.192V101.29C628.743 103.306 630.157 104.762 632.075 104.762C633.139 104.762 634.133 104.09 634.553 103.376V104.44C634.553 106.008 633.643 106.694 632.201 106.694C630.955 106.694 630.255 106.26 630.087 105.42H628.897C629.093 106.652 630.045 107.674 632.215 107.674ZM632.201 103.796C630.969 103.796 629.947 102.844 629.947 101.248V101.136C629.947 99.596 630.815 98.518 632.271 98.518C633.699 98.518 634.595 99.47 634.595 101.108V101.206C634.595 102.844 633.559 103.796 632.201 103.796ZM640.335 105.126C642.113 105.126 643.023 104.23 643.023 102.9C643.023 101.346 641.959 101.01 640.447 100.73C639.103 100.492 638.739 100.226 638.739 99.568C638.739 98.938 639.285 98.518 640.125 98.518C641.049 98.518 641.497 98.868 641.665 99.666H642.785C642.589 98.084 641.455 97.552 640.139 97.552C638.991 97.552 637.661 98.252 637.661 99.61C637.661 100.884 638.305 101.416 640.209 101.766C641.343 101.976 641.917 102.228 641.917 102.998C641.917 103.782 641.427 104.16 640.321 104.16C639.145 104.16 638.683 103.614 638.599 102.746H637.465C637.535 104.244 638.585 105.126 640.335 105.126Z" fill="#2A2C2E"/>
<path d="M285.987 55.1479H293.225V53.7059H288.969L291.195 51.5359C292.385 50.3879 293.155 49.2539 293.155 47.9519C293.155 46.1879 291.923 44.9979 289.851 44.9979C287.737 44.9979 286.421 46.2579 286.295 48.4419H288.003C288.171 47.0279 288.801 46.4539 289.795 46.4539C290.761 46.4539 291.293 47.0419 291.293 47.9799C291.293 48.9319 290.719 49.8139 289.767 50.8219L285.987 54.8119V55.1479ZM295.819 55.2459C296.449 55.2459 296.939 54.7699 296.939 54.1539C296.939 53.5379 296.449 53.0479 295.819 53.0479C295.203 53.0479 294.713 53.5379 294.713 54.1539C294.713 54.7699 295.203 55.2459 295.819 55.2459ZM304.042 55.1479H305.82L307.85 47.8539L309.824 55.1479H311.686L314.192 45.1379H312.456L310.664 52.5299L308.676 45.1379H307.136L305.19 52.4879L303.454 45.1379H301.55L304.042 55.1479ZM316.99 55.2879C318.11 55.2879 318.754 54.8819 319.23 54.2519V55.1479H320.896V50.3459C320.896 48.3439 319.608 47.6719 317.97 47.6719C316.332 47.6719 314.974 48.3859 314.834 50.0939H316.472C316.556 49.3659 316.99 48.9459 317.872 48.9459C318.866 48.9459 319.202 49.4359 319.202 50.4159V50.7939H318.292C316.192 50.7939 314.54 51.4099 314.54 53.1179C314.54 54.6439 315.646 55.2879 316.99 55.2879ZM317.396 54.0699C316.556 54.0699 316.22 53.6639 316.22 53.0479C316.22 52.1519 317.046 51.8579 318.334 51.8579H319.202V52.5859C319.202 53.5239 318.432 54.0699 317.396 54.0699ZM322.88 55.1479H324.574V47.8259H322.88V55.1479ZM323.706 46.6219C324.266 46.6219 324.714 46.2019 324.714 45.6559C324.714 45.0959 324.266 44.6759 323.706 44.6759C323.146 44.6759 322.698 45.0959 322.698 45.6559C322.698 46.2019 323.146 46.6219 323.706 46.6219ZM329.131 55.2739C329.649 55.2739 330.013 55.1899 330.279 55.0919V53.7479C330.041 53.8459 329.789 53.8879 329.453 53.8879C328.921 53.8879 328.613 53.5939 328.613 52.9499V49.0999H330.223V47.8259H328.613V46.2159H326.919V47.8259H325.939V49.0999H326.919V53.1039C326.919 54.4899 327.675 55.2739 329.131 55.2739ZM331.849 55.1479H333.543V44.4379H331.849V55.1479ZM335.65 55.1479H337.344V47.8259H335.65V55.1479ZM336.476 46.6219C337.036 46.6219 337.484 46.2019 337.484 45.6559C337.484 45.0959 337.036 44.6759 336.476 44.6759C335.916 44.6759 335.468 45.0959 335.468 45.6559C335.468 46.2019 335.916 46.6219 336.476 46.6219ZM341.914 55.2879C343.79 55.2879 344.84 54.4339 344.84 52.9499C344.84 51.3959 343.818 50.9759 342.096 50.7099C340.934 50.5139 340.584 50.3039 340.584 49.7719C340.584 49.2539 341.018 48.9039 341.746 48.9039C342.53 48.9039 342.908 49.2119 343.048 49.8839H344.616C344.434 48.2319 343.244 47.6719 341.746 47.6719C340.374 47.6719 339.002 48.3999 339.002 49.8699C339.002 51.2419 339.716 51.7879 341.648 52.0959C342.726 52.2779 343.216 52.5019 343.216 53.1039C343.216 53.7199 342.81 54.0419 341.9 54.0419C340.906 54.0419 340.528 53.6079 340.444 52.8659H338.848C338.918 54.4199 340.024 55.2879 341.914 55.2879ZM348.818 55.2739C349.336 55.2739 349.7 55.1899 349.966 55.0919V53.7479C349.728 53.8459 349.476 53.8879 349.14 53.8879C348.608 53.8879 348.3 53.5939 348.3 52.9499V49.0999H349.91V47.8259H348.3V46.2159H346.606V47.8259H345.626V49.0999H346.606V53.1039C346.606 54.4899 347.362 55.2739 348.818 55.2739ZM357.336 55.2879C359.212 55.2879 360.262 54.4339 360.262 52.9499C360.262 51.3959 359.24 50.9759 357.518 50.7099C356.356 50.5139 356.006 50.3039 356.006 49.7719C356.006 49.2539 356.44 48.9039 357.168 48.9039C357.952 48.9039 358.33 49.2119 358.47 49.8839H360.038C359.856 48.2319 358.666 47.6719 357.168 47.6719C355.796 47.6719 354.424 48.3999 354.424 49.8699C354.424 51.2419 355.138 51.7879 357.07 52.0959C358.148 52.2779 358.638 52.5019 358.638 53.1039C358.638 53.7199 358.232 54.0419 357.322 54.0419C356.328 54.0419 355.95 53.6079 355.866 52.8659H354.27C354.34 54.4199 355.446 55.2879 357.336 55.2879ZM364.24 55.2739C364.758 55.2739 365.122 55.1899 365.388 55.0919V53.7479C365.15 53.8459 364.898 53.8879 364.562 53.8879C364.03 53.8879 363.722 53.5939 363.722 52.9499V49.0999H365.332V47.8259H363.722V46.2159H362.028V47.8259H361.048V49.0999H362.028V53.1039C362.028 54.4899 362.784 55.2739 364.24 55.2739ZM370.136 55.2879C372.012 55.2879 373.258 54.4479 373.496 52.9079H371.858C371.732 53.6219 371.2 54.0279 370.178 54.0279C368.918 54.0279 368.218 53.2439 368.162 51.8579H373.524V51.3679C373.524 48.7499 371.886 47.6719 370.066 47.6719C367.98 47.6719 366.426 49.1839 366.426 51.4519V51.5639C366.426 53.8739 367.98 55.2879 370.136 55.2879ZM368.19 50.7239C368.358 49.5899 369.044 48.9039 370.066 48.9039C371.116 48.9039 371.76 49.4639 371.844 50.7239H368.19ZM375.037 57.6539H376.731V53.9999C377.123 54.7139 377.963 55.2879 379.125 55.2879C381.015 55.2879 382.373 53.8599 382.373 51.5079V51.3959C382.373 49.0299 380.959 47.6719 379.125 47.6719C378.047 47.6719 377.137 48.3019 376.731 49.0019V47.8259H375.037V57.6539ZM378.705 53.9439C377.473 53.9439 376.675 53.1739 376.675 51.5359V51.4239C376.675 49.7999 377.515 49.0019 378.691 49.0019C379.797 49.0019 380.637 49.7999 380.637 51.4239V51.5359C380.637 53.1039 379.951 53.9439 378.705 53.9439Z" fill="#2A2C2E"/>
<path d="M536.033 55.2879C538.329 55.2879 539.785 54.1399 539.785 52.2919C539.785 50.9619 539.015 50.1359 537.853 49.8699C538.819 49.5059 539.477 48.8199 539.477 47.6859C539.477 46.2019 538.259 44.9979 536.173 44.9979C534.031 44.9979 532.729 46.3279 532.631 48.0639H534.283C534.395 47.0559 535.081 46.4119 536.145 46.4119C537.181 46.4119 537.699 47.0139 537.699 47.8259C537.699 48.7639 537.181 49.2959 536.033 49.2959H535.319V50.6259H536.089C537.307 50.6259 537.895 51.1719 537.895 52.2639C537.895 53.2579 537.293 53.8879 535.991 53.8879C534.647 53.8879 534.059 53.1039 533.961 52.0539H532.267C532.351 53.9719 533.653 55.2879 536.033 55.2879ZM542.243 55.2459C542.873 55.2459 543.363 54.7699 543.363 54.1539C543.363 53.5379 542.873 53.0479 542.243 53.0479C541.627 53.0479 541.137 53.5379 541.137 54.1539C541.137 54.7699 541.627 55.2459 542.243 55.2459ZM548.757 55.1479H555.253V53.6779H550.619V50.7519H554.147V49.3519H550.619V46.6079H555.015V45.1379H548.757V55.1479ZM556.793 55.1479H558.487V50.8359C558.487 49.6739 559.257 49.0859 560.209 49.0859C561.217 49.0859 561.665 49.5899 561.665 50.6959V55.1479H563.359V50.5419C563.359 48.5259 562.323 47.6719 560.853 47.6719C559.649 47.6719 558.837 48.2739 558.487 48.9879V47.8259H556.793V55.1479ZM565.311 55.1479H567.005V51.3399C567.005 49.7859 567.901 49.3099 569.385 49.2959V47.7139C568.153 47.7279 567.467 48.2739 567.005 49.1979V47.8259H565.311V55.1479ZM574.014 53.9719C572.726 53.9719 571.984 53.0339 571.984 51.5359V51.4239C571.984 49.9119 572.754 49.0019 574.014 49.0019C575.274 49.0019 576.03 49.9259 576.03 51.4379V51.5359C576.03 53.0339 575.274 53.9719 574.014 53.9719ZM574 55.2879C576.156 55.2879 577.766 53.8039 577.766 51.5219V51.4099C577.766 49.1699 576.156 47.6719 574.014 47.6719C571.858 47.6719 570.248 49.1839 570.248 51.4519V51.5639C570.248 53.7899 571.844 55.2879 574 55.2879ZM579.339 55.1479H581.033V44.4379H579.339V55.1479ZM583.14 55.1479H584.834V44.4379H583.14V55.1479ZM590.119 55.2879C591.995 55.2879 593.241 54.4479 593.479 52.9079H591.841C591.715 53.6219 591.183 54.0279 590.161 54.0279C588.901 54.0279 588.201 53.2439 588.145 51.8579H593.507V51.3679C593.507 48.7499 591.869 47.6719 590.049 47.6719C587.963 47.6719 586.409 49.1839 586.409 51.4519V51.5639C586.409 53.8739 587.963 55.2879 590.119 55.2879ZM588.173 50.7239C588.341 49.5899 589.027 48.9039 590.049 48.9039C591.099 48.9039 591.743 49.4639 591.827 50.7239H588.173ZM597.764 55.2879C598.842 55.2879 599.78 54.6439 600.172 53.9159V55.1479H601.866V44.4379H600.172V48.9459C599.766 48.2179 599.024 47.6719 597.834 47.6719C595.93 47.6719 594.544 49.1559 594.544 51.4939V51.6059C594.544 53.9859 595.93 55.2879 597.764 55.2879ZM598.184 53.9439C597.092 53.9439 596.28 53.1739 596.28 51.5639V51.4519C596.28 49.8699 597.008 49.0019 598.254 49.0019C599.486 49.0019 600.228 49.7999 600.228 51.4099V51.5219C600.228 53.1599 599.36 53.9439 598.184 53.9439ZM609.721 55.2879C611.597 55.2879 612.647 54.4339 612.647 52.9499C612.647 51.3959 611.625 50.9759 609.903 50.7099C608.741 50.5139 608.391 50.3039 608.391 49.7719C608.391 49.2539 608.825 48.9039 609.553 48.9039C610.337 48.9039 610.715 49.2119 610.855 49.8839H612.423C612.241 48.2319 611.051 47.6719 609.553 47.6719C608.181 47.6719 606.809 48.3999 606.809 49.8699C606.809 51.2419 607.523 51.7879 609.455 52.0959C610.533 52.2779 611.023 52.5019 611.023 53.1039C611.023 53.7199 610.617 54.0419 609.707 54.0419C608.713 54.0419 608.335 53.6079 608.251 52.8659H606.655C606.725 54.4199 607.831 55.2879 609.721 55.2879ZM616.625 55.2739C617.143 55.2739 617.507 55.1899 617.773 55.0919V53.7479C617.535 53.8459 617.283 53.8879 616.947 53.8879C616.415 53.8879 616.107 53.5939 616.107 52.9499V49.0999H617.717V47.8259H616.107V46.2159H614.413V47.8259H613.433V49.0999H614.413V53.1039C614.413 54.4899 615.169 55.2739 616.625 55.2739ZM622.521 55.2879C624.397 55.2879 625.643 54.4479 625.881 52.9079H624.243C624.117 53.6219 623.585 54.0279 622.563 54.0279C621.303 54.0279 620.603 53.2439 620.547 51.8579H625.909V51.3679C625.909 48.7499 624.271 47.6719 622.451 47.6719C620.365 47.6719 618.811 49.1839 618.811 51.4519V51.5639C618.811 53.8739 620.365 55.2879 622.521 55.2879ZM620.575 50.7239C620.743 49.5899 621.429 48.9039 622.451 48.9039C623.501 48.9039 624.145 49.4639 624.229 50.7239H620.575ZM627.422 57.6539H629.116V53.9999C629.508 54.7139 630.348 55.2879 631.51 55.2879C633.4 55.2879 634.758 53.8599 634.758 51.5079V51.3959C634.758 49.0299 633.344 47.6719 631.51 47.6719C630.432 47.6719 629.522 48.3019 629.116 49.0019V47.8259H627.422V57.6539ZM631.09 53.9439C629.858 53.9439 629.06 53.1739 629.06 51.5359V51.4239C629.06 49.7999 629.9 49.0019 631.076 49.0019C632.182 49.0019 633.022 49.7999 633.022 51.4239V51.5359C633.022 53.1039 632.336 53.9439 631.09 53.9439Z" fill="#2A2C2E"/>
<rect x="39.5" y="144.5" width="199" height="139" rx="1.5" stroke="#2A2C2E"/>
<rect x="286.5" y="144.5" width="199" height="139" rx="1.5" stroke="#2A2C2E"/>
<line x1="286" y1="156.5" x2="485" y2="156.5" stroke="#2A2C2E"/>
<line x1="534" y1="156.5" x2="733" y2="156.5" stroke="#2A2C2E"/>
<rect x="533.5" y="144.5" width="199" height="139" rx="1.5" stroke="#2A2C2E"/>
<path d="M602.042 192.901L597.272 198.643C597.093 198.859 596.746 198.681 596.816 198.41L597.694 195.035C597.738 194.868 597.612 194.706 597.44 194.706L594.607 194.706C594.377 194.706 594.258 194.431 594.415 194.264L599.564 188.783C599.752 188.582 600.083 188.769 600.008 189.034L599.134 192.137C599.087 192.304 599.212 192.471 599.386 192.471L601.84 192.471C602.063 192.471 602.184 192.73 602.042 192.901Z" fill="#2A2C2E"/>
<path d="M670.643 190.26C670.209 190.26 667.711 190.26 667.711 190.26C665.43 190.26 665.43 193.41 667.711 193.41C668.362 193.41 667.711 193.41 669.014 193.41C671.295 193.41 671.295 196.56 669.014 196.56H666.081M668.362 189V198.449" stroke="#2A2C2E" stroke-width="1.04993" stroke-linecap="round"/>
<rect x="571.5" y="182.5" width="53" height="23" rx="0.5" stroke="#2A2C2E"/>
<rect x="571.5" y="222.5" width="53" height="23" rx="0.5" stroke="#2A2C2E"/>
<rect x="641.5" y="182.5" width="53" height="23" rx="0.5" stroke="#2A2C2E"/>
<rect x="641.5" y="222.5" width="53" height="23" rx="0.5" stroke="#2A2C2E"/>
<path d="M278 214L273 211.113V216.887L278 214ZM247 214.5H273.5V213.5H247V214.5Z" fill="#2A2C2E"/>
<path d="M525 214L520 211.113V216.887L525 214ZM494 214.5H520.5V213.5H494V214.5Z" fill="#2A2C2E"/>
<line x1="40" y1="156.5" x2="239" y2="156.5" stroke="#2A2C2E"/>
<rect x="76.5" y="182.5" width="124" height="23" rx="0.5" stroke="#2A2C2E"/>
<rect x="323.5" y="222.5" width="53" height="23" rx="0.5" stroke="#2A2C2E"/>
<rect x="393.5" y="222.5" width="53" height="23" rx="0.5" stroke="#2A2C2E"/>
<rect x="77.5" y="222.5" width="53" height="23" rx="0.5" stroke="#2A2C2E"/>
<rect x="147.5" y="222.5" width="53" height="23" rx="0.5" stroke="#2A2C2E"/>
<path d="M366.092 198.108C368.3 198.108 369.344 196.824 369.344 194.736V189.42H368.3V194.592C368.3 196.692 367.484 197.244 366.116 197.244C364.688 197.244 364.052 196.548 364.052 194.748V189.42H363.008V194.868C363.008 196.956 364.124 198.108 366.092 198.108ZM371.305 200.184H372.301V196.968C372.661 197.592 373.393 198.108 374.425 198.108C376.153 198.108 377.281 196.788 377.281 194.868V194.772C377.281 192.816 376.069 191.616 374.425 191.616C373.513 191.616 372.661 192.168 372.301 192.78V191.724H371.305V200.184ZM374.329 197.28C373.105 197.28 372.265 196.524 372.265 194.916V194.82C372.265 193.212 373.153 192.444 374.317 192.444C375.373 192.444 376.249 193.236 376.249 194.82V194.916C376.249 196.44 375.577 197.28 374.329 197.28ZM381.192 198.108C382.104 198.108 382.98 197.532 383.34 196.92V198H384.336V188.724H383.34V192.732C382.98 192.12 382.332 191.616 381.288 191.616C379.56 191.616 378.36 192.972 378.36 194.892V194.988C378.36 196.944 379.548 198.108 381.192 198.108ZM381.3 197.28C380.244 197.28 379.392 196.524 379.392 194.94V194.844C379.392 193.32 380.136 192.444 381.384 192.444C382.608 192.444 383.376 193.2 383.376 194.808V194.904C383.376 196.512 382.464 197.28 381.3 197.28ZM387.924 198.108C388.848 198.108 389.412 197.796 389.88 197.208V198H390.876V193.86C390.876 192.108 389.784 191.616 388.584 191.616C387.372 191.616 386.232 192.144 386.1 193.572H387.096C387.192 192.804 387.672 192.444 388.536 192.444C389.496 192.444 389.88 192.864 389.88 193.86V194.316H388.98C387.372 194.316 385.836 194.808 385.836 196.26C385.836 197.544 386.76 198.108 387.924 198.108ZM388.02 197.316C387.144 197.316 386.832 196.908 386.832 196.26C386.832 195.336 387.756 195.024 389.016 195.024H389.88V195.804C389.88 196.776 389.076 197.316 388.02 197.316ZM394.74 198.084C395.148 198.084 395.388 198.024 395.592 197.952V197.112C395.376 197.196 395.136 197.244 394.824 197.244C394.32 197.244 394.044 196.944 394.044 196.332V192.564H395.508V191.724H394.044V190.296H393.048V191.724H392.148V192.564H393.048V196.428C393.048 197.412 393.6 198.084 394.74 198.084ZM399.666 198.108C401.082 198.108 402.126 197.448 402.342 196.188H401.346C401.214 196.92 400.65 197.28 399.678 197.28C398.394 197.28 397.71 196.488 397.662 195.06H402.39V194.736C402.39 192.492 401.022 191.616 399.57 191.616C397.842 191.616 396.63 192.936 396.63 194.832V194.928C396.63 196.86 397.89 198.108 399.666 198.108ZM397.698 194.256C397.866 193.14 398.55 192.444 399.57 192.444C400.602 192.444 401.274 192.96 401.37 194.256H397.698ZM405.921 198.108C407.445 198.108 408.225 197.34 408.225 196.2C408.225 194.868 407.313 194.58 406.017 194.34C404.865 194.136 404.553 193.908 404.553 193.344C404.553 192.804 405.021 192.444 405.741 192.444C406.533 192.444 406.917 192.744 407.061 193.428H408.021C407.853 192.072 406.881 191.616 405.753 191.616C404.769 191.616 403.629 192.216 403.629 193.38C403.629 194.472 404.181 194.928 405.813 195.228C406.785 195.408 407.277 195.624 407.277 196.284C407.277 196.956 406.857 197.28 405.909 197.28C404.901 197.28 404.505 196.812 404.433 196.068H403.461C403.521 197.352 404.421 198.108 405.921 198.108Z" fill="#2A2C2E"/>
<rect x="323.5" y="182.5" width="124" height="23" rx="0.5" stroke="#2A2C2E"/>
</svg>
