<svg width="186" height="32" viewBox="0 0 186 32" fill="none" xmlns="http://www.w3.org/2000/svg">
<path d="M0.736 24L8.928 1.6H13.536L21.728 24H17.376L15.584 18.816H6.848L5.024 24H0.736ZM7.968 15.616H14.464L11.2 6.304L7.968 15.616ZM24.5175 24V8.128H28.1335L28.4535 10.816C28.9442 9.87733 29.6482 9.13067 30.5655 8.576C31.5042 8.02133 32.6028 7.744 33.8615 7.744C35.8242 7.744 37.3495 8.36267 38.4375 9.6C39.5255 10.8373 40.0695 12.6507 40.0695 15.04V24H35.9735V15.424C35.9735 14.0587 35.6962 13.0133 35.1415 12.288C34.5868 11.5627 33.7228 11.2 32.5495 11.2C31.3975 11.2 30.4482 11.6053 29.7015 12.416C28.9762 13.2267 28.6135 14.3573 28.6135 15.808V24H24.5175ZM50.7063 19.264C49.9383 19.264 49.2236 19.1787 48.5623 19.008L47.3783 20.192C47.7409 20.384 48.2316 20.544 48.8503 20.672C49.4689 20.8 50.4716 20.928 51.8583 21.056C53.9703 21.248 55.5063 21.7493 56.4663 22.56C57.4263 23.3707 57.9062 24.4907 57.9062 25.92C57.9062 26.8587 57.6503 27.744 57.1383 28.576C56.6263 29.4293 55.8369 30.112 54.7703 30.624C53.7036 31.1573 52.3383 31.424 50.6743 31.424C48.4129 31.424 46.5889 30.9973 45.2023 30.144C43.8156 29.312 43.1223 28.0533 43.1223 26.368C43.1223 24.9387 43.8156 23.7013 45.2023 22.656C44.7756 22.464 44.4023 22.2613 44.0823 22.048C43.7836 21.8347 43.5169 21.6107 43.2823 21.376V20.64L46.0663 17.696C44.8289 16.608 44.2103 15.2107 44.2103 13.504C44.2103 12.4373 44.4663 11.4667 44.9783 10.592C45.5116 9.71733 46.2583 9.024 47.2183 8.512C48.1783 8 49.3409 7.744 50.7063 7.744C51.6023 7.744 52.4343 7.872 53.2023 8.128H59.2183V10.624L56.4983 10.816C56.9249 11.6267 57.1383 12.5227 57.1383 13.504C57.1383 14.5707 56.8823 15.5413 56.3703 16.416C55.8583 17.2907 55.1116 17.984 54.1303 18.496C53.1703 19.008 52.0289 19.264 50.7063 19.264ZM50.7063 16.128C51.5383 16.128 52.2209 15.904 52.7543 15.456C53.3089 15.008 53.5863 14.368 53.5863 13.536C53.5863 12.704 53.3089 12.064 52.7543 11.616C52.2209 11.168 51.5383 10.944 50.7063 10.944C49.8316 10.944 49.1276 11.168 48.5943 11.616C48.0609 12.064 47.7943 12.704 47.7943 13.536C47.7943 14.368 48.0609 15.008 48.5943 15.456C49.1276 15.904 49.8316 16.128 50.7063 16.128ZM46.8663 25.952C46.8663 26.7413 47.2289 27.328 47.9543 27.712C48.7009 28.1173 49.6076 28.32 50.6743 28.32C51.6983 28.32 52.5303 28.1067 53.1703 27.68C53.8103 27.2747 54.1303 26.72 54.1303 26.016C54.1303 25.44 53.9169 24.96 53.4903 24.576C53.0849 24.192 52.2636 23.9573 51.0263 23.872C50.1516 23.808 49.3409 23.712 48.5943 23.584C47.9756 23.9253 47.5276 24.2987 47.2503 24.704C46.9943 25.1093 46.8663 25.5253 46.8663 25.952ZM69.292 24.384C67.692 24.384 66.2733 24.0427 65.036 23.36C63.7987 22.6773 62.828 21.7173 62.124 20.48C61.42 19.2427 61.068 17.8133 61.068 16.192C61.068 14.5493 61.4093 13.088 62.092 11.808C62.796 10.528 63.756 9.536 64.972 8.832C66.2093 8.10667 67.66 7.744 69.324 7.744C70.8813 7.744 72.2573 8.08533 73.452 8.768C74.6467 9.45067 75.5747 10.3893 76.236 11.584C76.9187 12.7573 77.26 14.0693 77.26 15.52C77.26 15.7547 77.2493 16 77.228 16.256C77.228 16.512 77.2173 16.7787 77.196 17.056H65.132C65.2173 18.2933 65.644 19.264 66.412 19.968C67.2013 20.672 68.1507 21.024 69.26 21.024C70.092 21.024 70.7853 20.8427 71.34 20.48C71.916 20.096 72.3427 19.6053 72.62 19.008H76.78C76.4813 20.0107 75.98 20.928 75.276 21.76C74.5933 22.5707 73.74 23.2107 72.716 23.68C71.7133 24.1493 70.572 24.384 69.292 24.384ZM69.324 11.072C68.3213 11.072 67.436 11.36 66.668 11.936C65.9 12.4907 65.4093 13.344 65.196 14.496H73.1C73.036 13.4507 72.652 12.6187 71.948 12C71.244 11.3813 70.3693 11.072 69.324 11.072ZM80.705 24V0.959999H84.801V24H80.705ZM94.4583 24.384C93.0929 24.384 91.9729 24.1707 91.0983 23.744C90.2236 23.296 89.5729 22.7093 89.1463 21.984C88.7196 21.2587 88.5063 20.4587 88.5063 19.584C88.5063 18.112 89.0823 16.9173 90.2343 16C91.3863 15.0827 93.1143 14.624 95.4183 14.624H99.4503V14.24C99.4503 13.152 99.1409 12.352 98.5223 11.84C97.9036 11.328 97.1356 11.072 96.2183 11.072C95.3863 11.072 94.6609 11.2747 94.0423 11.68C93.4236 12.064 93.0396 12.64 92.8903 13.408H88.8903C88.9969 12.256 89.3809 11.2533 90.0423 10.4C90.7249 9.54667 91.5996 8.896 92.6663 8.448C93.7329 7.97867 94.9276 7.744 96.2503 7.744C98.5116 7.744 100.293 8.30933 101.594 9.44C102.896 10.5707 103.546 12.1707 103.546 14.24V24H100.058L99.6743 21.44C99.2049 22.2933 98.5436 22.9973 97.6903 23.552C96.8583 24.1067 95.7809 24.384 94.4583 24.384ZM95.3863 21.184C96.5596 21.184 97.4663 20.8 98.1063 20.032C98.7676 19.264 99.1836 18.3147 99.3543 17.184H95.8663C94.7783 17.184 93.9996 17.3867 93.5303 17.792C93.0609 18.176 92.8263 18.656 92.8263 19.232C92.8263 19.8507 93.0609 20.3307 93.5303 20.672C93.9996 21.0133 94.6183 21.184 95.3863 21.184ZM120.968 24V16.032L113.448 1.6H118.088L123.048 11.936L127.976 1.6H132.552L125.064 16.032V24H120.968ZM133.934 24.224C133.187 24.224 132.568 23.9893 132.078 23.52C131.608 23.0507 131.374 22.4853 131.374 21.824C131.374 21.1413 131.608 20.5653 132.078 20.096C132.568 19.6267 133.187 19.392 133.934 19.392C134.68 19.392 135.288 19.6267 135.758 20.096C136.248 20.5653 136.494 21.1413 136.494 21.824C136.494 22.4853 136.248 23.0507 135.758 23.52C135.288 23.9893 134.68 24.224 133.934 24.224ZM147.582 24V1.6H151.678V10.912H161.726V1.6H165.822V24H161.726V14.24H151.678V24H147.582ZM177.792 24.384C176.192 24.384 174.773 24.0427 173.536 23.36C172.299 22.6773 171.328 21.7173 170.624 20.48C169.92 19.2427 169.568 17.8133 169.568 16.192C169.568 14.5493 169.909 13.088 170.592 11.808C171.296 10.528 172.256 9.536 173.472 8.832C174.709 8.10667 176.16 7.744 177.824 7.744C179.381 7.744 180.757 8.08533 181.952 8.768C183.147 9.45067 184.075 10.3893 184.736 11.584C185.419 12.7573 185.76 14.0693 185.76 15.52C185.76 15.7547 185.749 16 185.728 16.256C185.728 16.512 185.717 16.7787 185.696 17.056H173.632C173.717 18.2933 174.144 19.264 174.912 19.968C175.701 20.672 176.651 21.024 177.76 21.024C178.592 21.024 179.285 20.8427 179.84 20.48C180.416 20.096 180.843 19.6053 181.12 19.008H185.28C184.981 20.0107 184.48 20.928 183.776 21.76C183.093 22.5707 182.24 23.2107 181.216 23.68C180.213 24.1493 179.072 24.384 177.792 24.384ZM177.824 11.072C176.821 11.072 175.936 11.36 175.168 11.936C174.4 12.4907 173.909 13.344 173.696 14.496H181.6C181.536 13.4507 181.152 12.6187 180.448 12C179.744 11.3813 178.869 11.072 177.824 11.072Z" fill="url(#paint0_linear_864_6397)"/>
<defs>
<linearGradient id="paint0_linear_864_6397" x1="0" y1="13" x2="188" y2="13" gradientUnits="userSpaceOnUse">
<stop stop-color="#39C5B0"/>
<stop offset="0.493055" stop-color="#D77C12"/>
<stop offset="1" stop-color="#80B510"/>
</linearGradient>
</defs>
</svg>
